<svg width="300" height="300" viewBox="0 0 300 300" fill="none" xmlns="http://www.w3.org/2000/svg">
<rect width="300" height="300" fill="#FFFFFF"/>
<path d="M150 30 C220 30, 270 100, 270 180 C270 260, 220 270, 150 270 C80 270, 30 260, 30 180 C30 100, 80 30, 150 30 Z" stroke="#333" stroke-width="2"/>
<path d="M150 30 V270" stroke="#333" stroke-width="1" stroke-dasharray="5 5"/>
<path d="M30 180 H270" stroke="#333" stroke-width="1" stroke-dasharray="5 5"/>
<path d="M50 100 H250" stroke="#666" stroke-width="2"/>
<path d="M60 130 H240" stroke="#666" stroke-width="2"/>
<path d="M70 160 H230" stroke="#666" stroke-width="2"/>
<path d="M80 190 H220" stroke="#666" stroke-width="2"/>
<path d="M90 220 H210" stroke="#666" stroke-width="2"/>
<circle cx="150" cy="100" r="5" fill="#FF0000"/>
<circle cx="150" cy="130" r="5" fill="#FF0000"/>
<circle cx="150" cy="160" r="5" fill="#FF0000"/>
<circle cx="150" cy="190" r="5" fill="#FF0000"/>
<circle cx="150" cy="220" r="5" fill="#FF0000"/>
<text x="155" y="95" font-family="Arial" font-size="10" fill="#FF0000">Row 1</text>
<text x="155" y="125" font-family="Arial" font-size="10" fill="#FF0000">Row 2</text>
<text x="155" y="155" font-family="Arial" font-size="10" fill="#FF0000">Row 3</text>
<text x="155" y="185" font-family="Arial" font-size="10" fill="#FF0000">Row 4</text>
<text x="155" y="215" font-family="Arial" font-size="10" fill="#FF0000">Row 5</text>
</svg>