<svg width="300" height="300" viewBox="0 0 300 300" fill="none" xmlns="http://www.w3.org/2000/svg">
<rect width="300" height="300" fill="#FFFFFF"/>
<path d="M150 30 C220 30, 270 100, 270 180 C270 260, 220 270, 150 270 C80 270, 30 260, 30 180 C30 100, 80 30, 150 30 Z" stroke="#333" stroke-width="2"/>
<path d="M150 30 V270" stroke="#333" stroke-width="1"/>
<path d="M30 180 H270" stroke="#333" stroke-width="1"/>
<rect x="100" y="50" width="100" height="50" fill="#FFDDC1" stroke="#333" stroke-width="1"/>
<rect x="100" y="100" width="100" height="50" fill="#FFC1DD" stroke="#333" stroke-width="1"/>
<rect x="100" y="150" width="100" height="50" fill="#C1DDFF" stroke="#333" stroke-width="1"/>
<rect x="100" y="200" width="100" height="50" fill="#DDC1FF" stroke="#333" stroke-width="1"/>
<text x="120" y="75" font-family="Arial" font-size="10" fill="#333">Zone 1</text>
<text x="120" y="125" font-family="Arial" font-size="10" fill="#333">Zone 2</text>
<text x="120" y="175" font-family="Arial" font-size="10" fill="#333">Zone 3</text>
<text x="120" y="225" font-family="Arial" font-size="10" fill="#333">Zone 4</text>
<path d="M150 30 C150 30, 180 60, 180 100 C180 140, 150 150, 150 150" stroke="#333" stroke-width="1"/>
<path d="M150 30 C150 30, 120 60, 120 100 C120 140, 150 150, 150 150" stroke="#333" stroke-width="1"/>
<path d="M150 150 C150 150, 180 180, 180 220 C180 260, 150 270, 150 270" stroke="#333" stroke-width="1"/>
<path d="M150 150 C150 150, 120 180, 120 220 C120 260, 150 270, 150 270" stroke="#333" stroke-width="1"/>
</svg>